<svg width="125" height="75" viewBox="0 0 125 75" fill="none" xmlns="http://www.w3.org/2000/svg">
<rect width="125" height="75" rx="37.5" fill="#FFEDD0"/>
<path d="M53.6348 23.4581C53.6348 23.4581 53.6481 23.6415 53.6521 23.9759L53.6537 24.1085C53.6539 24.1555 53.6562 24.2021 53.6513 24.2615C53.641 24.3856 53.6308 24.5096 53.6204 24.6336C53.6081 24.7669 53.5965 24.9169 53.5793 25.0669C53.5616 25.2141 53.5446 25.3724 53.5213 25.5379C53.4121 26.3379 53.2459 27.1291 53.0239 27.9054C52.7684 28.8073 52.4089 29.8107 51.9137 30.8676C51.4203 31.9252 50.7839 33.0299 50.0032 34.1349C49.9084 34.2759 49.8044 34.4098 49.7021 34.5474L49.5469 34.7539L49.4687 34.8577L49.4491 34.8838C49.5108 34.8271 49.354 34.9758 49.3674 34.9643L49.3592 34.9752L49.3266 35.0186C49.1536 35.2513 48.9712 35.479 48.7909 35.7135L48.7739 35.7354L48.7499 35.7624L48.7015 35.8167L48.6043 35.9254L48.406 36.1412L48.0022 36.5749L47.9001 36.6835L47.8042 36.7817C47.7402 36.8477 47.6754 36.9128 47.6098 36.9772L47.2142 37.3681C46.1438 38.4049 44.9282 39.3705 43.6079 40.228C42.2692 41.0948 40.8505 41.8313 39.3711 42.4272C37.8907 43.0253 36.3572 43.4822 34.7909 43.7919C33.2424 44.0961 31.6922 44.2484 30.1957 44.2561C28.6989 44.2643 27.2571 44.1312 25.9174 43.8923C25.247 43.7785 24.603 43.6231 23.9874 43.4633C23.3733 43.2885 22.7865 43.1125 22.2354 42.9031L21.8266 42.7538C21.6922 42.7042 21.5616 42.6449 21.4319 42.5918C21.1727 42.484 20.9216 42.3756 20.6789 42.2669C20.437 42.1547 20.2045 42.0379 19.9799 41.9245L19.6488 41.7568C19.5404 41.7019 19.4364 41.6388 19.3331 41.5816C18.9214 41.3467 18.5404 41.1288 18.2019 40.8979C17.8621 40.671 17.5528 40.4663 17.2857 40.2568L16.9076 39.9633L16.5808 39.6973C16.3815 39.5266 16.2171 39.374 16.0845 39.2509C15.8195 39.0047 15.6856 38.864 15.6856 38.864C14.4394 37.5545 14.4907 35.4827 15.8002 34.2364C16.3252 33.7352 17.0024 33.4236 17.7246 33.351L18.1172 33.3114C18.1172 33.3114 18.2818 33.2947 18.5764 33.2808C18.7236 33.2739 18.9043 33.2646 19.1106 33.2625L19.4471 33.2428L19.8211 33.2285C20.0806 33.226 20.3717 33.2007 20.6781 33.1908C20.9835 33.1845 21.3162 33.1534 21.6605 33.1396C22.0054 33.1243 22.3724 33.0861 22.7476 33.0685C23.128 33.0275 23.5169 33.0101 23.9219 32.9627L24.2266 32.9324L24.38 32.9198L24.5352 32.9006L24.8483 32.8623L25.1638 32.8303C25.3763 32.7993 25.5906 32.7691 25.8063 32.7447L25.9685 32.7247L26.1319 32.6977L26.4602 32.6498C27.3393 32.5166 28.2451 32.3552 29.1634 32.1581C31.0002 31.7665 32.8874 31.2334 34.7283 30.5506C35.6475 30.2086 36.5544 29.834 37.447 29.4276C38.3375 29.0245 39.2046 28.5883 40.0492 28.1398L40.3618 27.9671C40.4137 27.9382 40.466 27.9099 40.5192 27.8826L40.5986 27.8414L40.6663 27.8048L40.937 27.6602L41.0734 27.589L41.143 27.5548L41.1777 27.5378L41.1953 27.5291L41.2185 27.514C41.4666 27.3528 41.708 27.189 41.9538 27.0352L41.9997 27.0062L42.0111 26.9989C42.031 26.9814 41.8807 27.124 41.9486 27.061L41.967 27.0497L42.0407 27.0044L42.1878 26.9143L42.4805 26.7344C43.2541 26.2521 43.9966 25.7673 44.6842 25.2869C45.3282 24.838 45.9635 24.3768 46.5899 23.9036C47.1685 23.4696 47.6787 23.0662 48.1106 22.7265C48.2167 22.6406 48.3222 22.5609 48.4196 22.4841C48.5156 22.4093 48.6041 22.3453 48.6881 22.2813L48.9224 22.1049C48.9589 22.0809 48.9968 22.0462 49.0322 22.0163L49.1329 21.93C49.3868 21.7124 49.5334 21.6013 49.5334 21.6013C50.6607 20.7469 52.2672 20.9682 53.1217 22.0955C53.4221 22.4899 53.6005 22.9636 53.6348 23.4581Z" fill="#FFAE2C"/>
<path d="M16.8305 36.2493C16.4295 37.1649 16.0744 37.2861 15.1325 36.8736C14.1905 36.4611 14.0388 36.118 14.4397 35.2024C14.8406 34.2867 17.2315 35.3336 16.8305 36.2493Z" fill="#B28E7F"/>
<path d="M55.7056 24.6346C55.7056 24.6346 55.7495 24.8374 55.8072 25.2105L55.83 25.3585C55.8379 25.4109 55.8478 25.4626 55.8518 25.5298L55.8765 25.9504C55.8838 26.1013 55.8949 26.2708 55.8994 26.4411C55.9029 26.6084 55.9092 26.788 55.9095 26.9766C55.9147 27.8879 55.8547 28.7984 55.73 29.7012C55.5878 30.7497 55.3457 31.928 54.9604 33.1877C54.5772 34.4479 54.0417 35.7836 53.345 37.1423C53.2615 37.3148 53.1666 37.4811 53.0741 37.6511L52.9336 37.9066L52.8628 38.035L52.8449 38.0672C52.9048 37.994 52.7533 38.1851 52.7663 38.1702L52.7589 38.1836L52.7295 38.2373C52.5732 38.5248 52.4055 38.8082 52.2413 39.0989L52.2258 39.1261L52.2033 39.1601L52.1578 39.2283L52.0665 39.3653L51.8793 39.6379L51.497 40.1867L51.4002 40.3242L51.3087 40.4492C51.2478 40.533 51.1855 40.6158 51.1226 40.6985L50.7426 41.1981C49.7114 42.5268 48.5066 43.799 47.1676 44.9671C45.8096 46.1485 44.3413 47.197 42.783 48.098C41.2239 49.0016 39.5829 49.756 37.8819 50.3511C36.2001 50.9372 34.4921 51.3539 32.821 51.6003C31.1498 51.8475 29.5176 51.9279 27.9826 51.8739C27.2153 51.8532 26.4711 51.7821 25.7577 51.7014C25.0438 51.6036 24.36 51.5002 23.711 51.3539L23.2304 51.2521C23.0724 51.2181 22.9171 51.1726 22.7637 51.1338C22.4649 51.0567 22.1671 50.9756 21.8705 50.8905C21.5825 50.8036 21.3041 50.7101 21.035 50.619L20.6384 50.4842C20.5085 50.4401 20.3823 50.3861 20.2577 50.3387C20.0176 50.245 19.7785 50.1484 19.5406 50.0489C19.3105 49.9586 19.0934 49.8523 18.8851 49.7545C18.4693 49.5551 18.0911 49.3754 17.7594 49.1837C17.4641 49.0184 17.1717 48.8481 16.8822 48.6728C16.6716 48.5355 16.4632 48.3948 16.2572 48.2507C15.922 48.0176 15.75 47.8818 15.75 47.8818C14.1492 46.6166 13.8772 44.2934 15.1424 42.6926C15.6493 42.0492 16.3565 41.5933 17.1519 41.3974L17.5842 41.2906C17.5842 41.2906 17.7654 41.2458 18.0925 41.1835C18.2559 41.1525 18.4563 41.1136 18.6871 41.0758C18.9199 41.0287 19.1843 40.9782 19.475 40.9271C19.7646 40.8831 20.0858 40.8085 20.4266 40.7488C20.7669 40.6932 21.1337 40.6056 21.5163 40.5353C21.8993 40.4634 22.3033 40.3624 22.7198 40.2832C22.9316 40.2307 23.1442 40.1814 23.3575 40.1353C23.5732 40.0899 23.7928 40.0322 24.0151 39.9782L24.3508 39.8959L24.5201 39.8575L24.6906 39.8114L25.0342 39.7188L25.3816 39.6329L25.732 39.5308C25.9093 39.4827 26.0866 39.4347 26.264 39.3868L26.4423 39.3307C26.5614 39.2937 26.6814 39.2603 26.8016 39.2249C27.7627 38.9363 28.7491 38.6119 29.7439 38.2457C31.7341 37.5161 33.758 36.6205 35.7065 35.5647C36.6794 35.0365 37.6331 34.4737 38.5659 33.8776C39.4969 33.2857 40.3965 32.6604 41.2689 32.0249L41.5908 31.7822C41.6442 31.7415 41.6984 31.7017 41.7532 31.6628L41.8353 31.6041L41.9052 31.5524L42.1847 31.3478L42.3258 31.2465L42.3981 31.1972L42.4344 31.1726L42.4526 31.1602L42.4761 31.1395C42.7277 30.92 42.9714 30.6986 43.2216 30.4876L43.2682 30.4478L43.2799 30.4379C43.2994 30.4152 43.154 30.5983 43.2199 30.5172L43.2387 30.5017L43.3138 30.4395L43.4639 30.3154L43.7623 30.0679C44.55 29.406 45.3027 28.7463 45.9945 28.1002C46.6427 27.4962 47.2794 26.8799 47.9041 26.2516C48.4817 25.6746 48.9877 25.1429 49.4162 24.6946C49.521 24.5817 49.6262 24.4758 49.7229 24.3745C49.8183 24.2756 49.9071 24.1902 49.9908 24.1053L50.2244 23.8709C50.2614 23.8383 50.2983 23.7935 50.333 23.7543L50.4318 23.6419C50.6811 23.3584 50.8271 23.211 50.8271 23.211C51.9509 22.077 53.7813 22.0688 54.9153 23.1926C55.3136 23.586 55.5883 24.0872 55.7056 24.6346Z" fill="#FFB93E"/>
<path d="M16.6137 44.7783C16.3113 45.8652 13.4733 45.0754 13.7758 43.9885C14.0782 42.9016 14.4557 42.7098 15.574 43.021C16.6922 43.3321 16.9162 43.6913 16.6137 44.7783Z" fill="#A07562"/>
<path d="M54.084 15.6491C53.9706 15.618 53.8521 15.6104 53.7357 15.6268C53.6149 15.5232 53.4794 15.438 53.3337 15.3739C52.7484 15.1176 52.1121 15.6835 51.7882 16.0383C50.8028 17.1176 53.0204 18.5334 51.4446 21.1405C51.2226 21.5079 51.4119 22.454 51.7508 22.6024C52.1331 22.7698 52.5836 22.6478 52.9184 22.3232C52.9088 22.3465 52.8998 22.3696 52.8898 22.3931C52.7001 22.8388 53.0621 23.8659 53.4644 23.9778C54.0618 24.1441 54.7123 23.7322 54.9765 23.0273C55.7192 21.045 56.5126 16.325 54.084 15.6491Z" fill="#8E6049"/>
<path d="M59.2241 23.1937C59.2241 23.1937 59.325 23.3679 59.4915 23.6965L59.5575 23.8269C59.5807 23.8734 59.6052 23.9173 59.6302 23.9819L59.7852 24.3804C59.8394 24.5236 59.9028 24.6841 59.9605 24.8459C60.0161 25.0046 60.0779 25.1739 60.1375 25.3539C60.4284 26.2227 60.6601 27.1101 60.8311 28.0102C61.0321 29.0554 61.1837 30.256 61.2311 31.5801C61.2804 32.9041 61.2147 34.3493 61.0094 35.8698C60.9878 36.061 60.9539 36.2504 60.9233 36.4425L60.876 36.7315L60.852 36.8768L60.8459 36.9133C60.8765 36.8186 60.8008 37.0629 60.8078 37.043L60.8053 37.0579L60.7952 37.118C60.7427 37.4391 60.679 37.7607 60.6205 38.0876L60.6149 38.1183L60.6051 38.1582L60.5853 38.2385L60.5454 38.3994C60.5173 38.5069 60.4892 38.6143 60.461 38.7218L60.2865 39.3721L60.2418 39.5352L60.1977 39.6842C60.1683 39.7841 60.1379 39.8837 60.1065 39.9829L59.9177 40.5836C59.392 42.1861 58.6971 43.7983 57.8416 45.3586C56.9732 46.9363 55.9594 48.4295 54.8134 49.8187C53.6644 51.217 52.3811 52.5034 51.0177 53.6441C49.6545 54.7854 48.2109 55.781 46.7424 56.6064C45.2742 57.4329 43.7855 58.0933 42.3404 58.5974C41.6204 58.8552 40.9039 59.0585 40.2129 59.2431C39.5152 59.4116 38.8438 59.5651 38.1892 59.6669L37.7069 59.7484C37.5481 59.7749 37.3878 59.7897 37.2315 59.8101C36.9185 59.8492 36.6131 59.8836 36.3158 59.9132C36.0173 59.9386 35.7255 59.9549 35.4433 59.9702L35.027 59.9922C34.8907 59.9996 34.7542 59.9964 34.6216 59.9988C34.0894 60.001 33.5965 60.0037 33.1379 59.9701C32.6803 59.9412 32.2646 59.9176 31.8874 59.8656L31.3553 59.7956L30.8884 59.7242C30.5989 59.6723 30.3536 59.6189 30.1557 59.5758C29.76 59.4895 29.5511 59.4315 29.5511 59.4315C27.6057 58.8919 26.4661 56.8773 27.0057 54.932C27.2398 54.0833 27.7734 53.3481 28.5078 52.8626L28.8687 52.6241C28.8687 52.6241 29.0218 52.5229 29.3052 52.3554C29.4469 52.2717 29.6203 52.1683 29.8231 52.0575L30.145 51.8612L30.5071 51.6495C30.7626 51.5097 31.0367 51.3301 31.3348 51.1569C31.6339 50.9879 31.9464 50.779 32.2802 50.5802C32.6138 50.3797 32.9565 50.1441 33.319 49.9232C33.6736 49.6766 34.0497 49.4477 34.425 49.1793L34.7104 48.9828L34.8555 48.8862L34.9987 48.782L35.2878 48.5723L35.5826 48.3666L35.8744 48.145L36.1715 47.927L36.3211 47.8174L36.4679 47.7003L36.7662 47.4705C37.5619 46.8502 38.3665 46.1832 39.1601 45.4707C39.9536 44.7583 40.7396 44.0048 41.498 43.2097C42.2569 42.4152 42.9874 41.5793 43.6847 40.7182C45.0755 38.9923 46.3224 37.1562 47.3926 35.3185L47.5885 34.9729C47.621 34.9154 47.654 34.8581 47.6884 34.8016L47.7395 34.7165L47.7815 34.6427L47.9502 34.3508L48.0362 34.2057L48.081 34.1337L48.1036 34.0977L48.1148 34.0796L48.1282 34.0515C48.2719 33.752 48.4086 33.4541 48.5539 33.163L48.5808 33.1083L48.5875 33.0947C48.5976 33.0652 48.525 33.2999 48.5582 33.1956L48.5688 33.1742L48.6116 33.0889L48.6974 32.9188L48.8674 32.5802C49.3122 31.679 49.7227 30.7974 50.0821 29.9549C50.418 29.1701 50.7382 28.3787 51.0426 27.5812C51.3245 26.8506 51.5595 26.1899 51.759 25.6339C51.8066 25.4951 51.8569 25.3624 51.9019 25.2371C51.9464 25.115 51.9898 25.0098 52.0296 24.9056L52.1416 24.6179C52.1609 24.5774 52.1757 24.5217 52.1906 24.473L52.2329 24.3331C52.3397 23.9805 52.4088 23.7914 52.4088 23.7914C53.1244 21.8321 55.2929 20.8241 57.252 21.5397C58.1154 21.8548 58.7962 22.4564 59.2241 23.1937Z" fill="#FFCE6C"/>
<path d="M58.5539 32.7073C58.5539 32.7073 58.6147 32.9897 58.6763 33.4782C58.6843 33.5393 58.693 33.6037 58.6999 33.671L58.7112 33.7743L58.7166 33.8897C58.7247 34.0474 58.7257 34.218 58.7303 34.4021C58.7326 34.585 58.7333 34.7844 58.7282 34.9883L58.6865 35.619C58.6584 36.0613 58.582 36.5311 58.4961 37.0311C58.4771 37.1569 58.4472 37.2809 58.4183 37.4071L58.3271 37.7898C58.2632 38.0474 58.2012 38.313 58.1128 38.5733C58.0288 38.8404 57.9414 39.1064 57.8507 39.3712C57.7504 39.636 57.641 39.901 57.5315 40.1688C57.4738 40.3012 57.4231 40.438 57.3583 40.568L57.1675 40.9612L56.972 41.3542C56.9084 41.4864 56.8366 41.6139 56.763 41.7404C56.6184 41.9945 56.4714 42.2472 56.3221 42.4985C56.1651 42.7417 56.005 42.9829 55.8416 43.2218C55.6846 43.4627 55.5101 43.6882 55.3383 43.9107C55.1643 44.1316 54.9994 44.3549 54.8189 44.5596C54.4589 44.9699 54.1105 45.364 53.7464 45.7058L53.481 45.9612C53.3931 46.0441 53.3089 46.1278 53.2186 46.2033C53.0389 46.3548 52.8702 46.5044 52.7005 46.6403C52.3703 46.9206 52.0433 47.1502 51.754 47.3512C51.6083 47.4507 51.4742 47.5453 51.3457 47.6273C51.2261 47.7007 51.1054 47.7722 50.9837 47.8421C50.8138 47.9411 50.6416 48.036 50.4672 48.1267C50.3461 48.1894 50.2801 48.2206 50.2801 48.2206C50.1289 48.2922 49.959 48.3142 49.7946 48.2835C49.6302 48.2528 49.4796 48.1709 49.3645 48.0496C49.2494 47.9282 49.1755 47.7737 49.1534 47.6079C49.1314 47.4421 49.1622 47.2735 49.2416 47.1263L49.2553 47.1013L49.3517 46.925C49.4158 46.8118 49.5104 46.647 49.6362 46.4459C49.6979 46.3441 49.7689 46.2346 49.8457 46.1157C49.9176 45.992 49.999 45.8626 50.0845 45.7236C50.256 45.4464 50.459 45.146 50.6629 44.8071C50.7649 44.6377 50.8794 44.4697 50.9929 44.2921C51.1036 44.1123 51.215 43.9254 51.3339 43.7377C51.5773 43.366 51.8094 42.9604 52.065 42.5554C52.1311 42.4556 52.1902 42.3502 52.2508 42.2448L52.4372 41.9294L52.629 41.6131C52.6941 41.5077 52.7511 41.397 52.814 41.2893C52.9355 41.0714 53.0648 40.8563 53.1904 40.6383C53.3092 40.416 53.4303 40.1951 53.5539 39.9756C53.6821 39.758 53.7893 39.5306 53.9086 39.3099C54.0254 39.0882 54.1493 38.8705 54.2542 38.6467C54.3642 38.4271 54.4762 38.2084 54.5901 37.9908C54.691 37.7733 54.795 37.5572 54.9021 37.3426C55.012 37.1317 55.1029 36.9185 55.1997 36.7114L55.3449 36.4043C55.3947 36.3053 55.4412 36.2048 55.4843 36.1028C55.569 35.9073 55.6561 35.7128 55.7456 35.5195C55.8399 35.3326 55.9102 35.1464 55.9864 34.9687L56.2132 34.4576C56.2855 34.2973 56.3415 34.1473 56.4054 34.004C56.4694 33.8615 56.5259 33.7262 56.5853 33.6012L56.6282 33.5089L56.6651 33.4117C56.6886 33.3483 56.7133 33.2882 56.7364 33.2311C56.9187 32.7736 57.0485 32.5155 57.0485 32.5155C57.1443 32.3249 57.312 32.1801 57.5146 32.1131C57.7171 32.0461 57.9381 32.0623 58.1287 32.1581C58.3538 32.271 58.5035 32.4793 58.5539 32.7073Z" fill="#FFDF95"/>
<path d="M29.2295 56.2262C29.3421 57.3489 29.0599 57.6646 27.905 57.7804C26.7502 57.8961 26.411 57.6427 26.2984 56.5201C26.1859 55.3975 26.4681 55.0818 27.6229 54.966C28.7778 54.8502 29.117 55.1036 29.2295 56.2262Z" fill="#8E6049"/>
<path d="M56.0209 23.472C56.6379 23.4102 57.0946 22.7903 57.0849 22.0375C57.0578 19.9209 58.6858 16.6341 56.4414 15.4861C53.7844 14.127 51.6956 15.9941 51.5735 16.5222C51.2018 18.1293 54.0369 18.3886 54.9311 22.8843C55.0257 23.3594 55.6054 23.5136 56.0209 23.472Z" fill="#966C5A"/>
<path d="M55.7055 18.6795C54.9915 19.8374 55.7062 23.5035 56.0209 23.472C56.6379 23.4101 58.2814 14.502 55.7055 18.6795Z" fill="#1AC84B"/>
</svg>
